# xmcd CD database file
#
# Track frame offsets:
#	150
#	19043
#	37880
#	53739
#	88095
#	111212
#	128166
#	144545
#	169068
#	193368
#	207089
#	214079
#
# Disc length: 3214 seconds
#
# Revision: 0
# Processed by: cddbd v1.5.2PL0 Copyright (c) Steve Scherf et al.
# Submitted via: CDex 1.51
#
DISCID=a90c8c0c
DTITLE=Bottle of Blues - Low Expectations
DYEAR=1900
DGENRE=Blues
TTITLE0=Radio Man
TTITLE1=Hey Baby
TTITLE2=Hot Cup of Coffee
TTITLE3=My Happy Home
TTITLE4=Low Expectations
TTITLE5=Praise Be
TTITLE6=Seven Eleven
TTITLE7=Went to Bed with a Ten
TTITLE8=Wake 'n' Bake
TTITLE9=Four Vices
TTITLE10=The Blues Review - Introduction
TTITLE11=The Blues Review - Radio Man
EXTD=
EXTT0=
EXTT1=
EXTT2=
EXTT3=
EXTT4=
EXTT5=
EXTT6=
EXTT7=
EXTT8=
EXTT9=
EXTT10=
EXTT11=
PLAYORDER=
